<svg id="visual" viewBox="0 0 960 540" width="960" height="540" xmlns="http://www.w3.org/2000/svg" xmlns:xlink="http://www.w3.org/1999/xlink" version="1.1"><rect x="0" y="0" width="960" height="540" fill="#ffffff"></rect><path d="M0 359L22.8 359C45.7 359 91.3 359 137 359C182.7 359 228.3 359 274 359C319.7 359 365.3 359 411.2 359C457 359 503 359 548.8 359C594.7 359 640.3 359 686 359C731.7 359 777.3 359 823 359C868.7 359 914.3 359 937.2 359L960 359L960 0L937.2 0C914.3 0 868.7 0 823 0C777.3 0 731.7 0 686 0C640.3 0 594.7 0 548.8 0C503 0 457 0 411.2 0C365.3 0 319.7 0 274 0C228.3 0 182.7 0 137 0C91.3 0 45.7 0 22.8 0L0 0Z" fill="#6600ff"></path><path d="M0 292L22.8 292C45.7 292 91.3 292 137 292C182.7 292 228.3 292 274 292C319.7 292 365.3 292 411.2 292C457 292 503 292 548.8 292C594.7 292 640.3 292 686 292C731.7 292 777.3 292 823 292C868.7 292 914.3 292 937.2 292L960 292L960 0L937.2 0C914.3 0 868.7 0 823 0C777.3 0 731.7 0 686 0C640.3 0 594.7 0 548.8 0C503 0 457 0 411.2 0C365.3 0 319.7 0 274 0C228.3 0 182.7 0 137 0C91.3 0 45.7 0 22.8 0L0 0Z" fill="#6600ff"></path><path d="M0 224L22.8 224C45.7 224 91.3 224 137 224C182.7 224 228.3 224 274 224C319.7 224 365.3 224 411.2 224C457 224 503 224 548.8 224C594.7 224 640.3 224 686 224C731.7 224 777.3 224 823 224C868.7 224 914.3 224 937.2 224L960 224L960 0L937.2 0C914.3 0 868.7 0 823 0C777.3 0 731.7 0 686 0C640.3 0 594.7 0 548.8 0C503 0 457 0 411.2 0C365.3 0 319.7 0 274 0C228.3 0 182.7 0 137 0C91.3 0 45.7 0 22.8 0L0 0Z" fill="#6600ff"></path><path d="M0 157L22.8 157C45.7 157 91.3 157 137 157C182.7 157 228.3 157 274 157C319.7 157 365.3 157 411.2 157C457 157 503 157 548.8 157C594.7 157 640.3 157 686 157C731.7 157 777.3 157 823 157C868.7 157 914.3 157 937.2 157L960 157L960 0L937.2 0C914.3 0 868.7 0 823 0C777.3 0 731.7 0 686 0C640.3 0 594.7 0 548.8 0C503 0 457 0 411.2 0C365.3 0 319.7 0 274 0C228.3 0 182.7 0 137 0C91.3 0 45.7 0 22.8 0L0 0Z" fill="#6600ff"></path><path d="M0 89L22.8 89C45.7 89 91.3 89 137 89C182.7 89 228.3 89 274 89C319.7 89 365.3 89 411.2 89C457 89 503 89 548.8 89C594.7 89 640.3 89 686 89C731.7 89 777.3 89 823 89C868.7 89 914.3 89 937.2 89L960 89L960 0L937.2 0C914.3 0 868.7 0 823 0C777.3 0 731.7 0 686 0C640.3 0 594.7 0 548.8 0C503 0 457 0 411.2 0C365.3 0 319.7 0 274 0C228.3 0 182.7 0 137 0C91.3 0 45.7 0 22.8 0L0 0Z" fill="#6600ff"></path></svg>