<svg id="visual" viewBox="0 0 960 540" width="960" height="540" xmlns="http://www.w3.org/2000/svg" xmlns:xlink="http://www.w3.org/1999/xlink" version="1.1"><rect x="0" y="0" width="960" height="540" fill="#6600FF"></rect><path d="M0 113L53 113L53 132L107 132L107 82L160 82L160 132L213 132L213 120L267 120L267 82L320 82L320 110L373 110L373 97L427 97L427 130L480 130L480 114L533 114L533 84L587 84L587 120L640 120L640 115L693 115L693 124L747 124L747 134L800 134L800 120L853 120L853 111L907 111L907 87L960 87L960 122L960 0L960 0L907 0L907 0L853 0L853 0L800 0L800 0L747 0L747 0L693 0L693 0L640 0L640 0L587 0L587 0L533 0L533 0L480 0L480 0L427 0L427 0L373 0L373 0L320 0L320 0L267 0L267 0L213 0L213 0L160 0L160 0L107 0L107 0L53 0L53 0L0 0Z" fill="#ffffff"></path><path d="M0 63L53 63L53 82L107 82L107 85L160 85L160 69L213 69L213 96L267 96L267 81L320 81L320 93L373 93L373 83L427 83L427 70L480 70L480 89L533 89L533 91L587 91L587 58L640 58L640 72L693 72L693 92L747 92L747 61L800 61L800 88L853 88L853 64L907 64L907 78L960 78L960 88L960 0L960 0L907 0L907 0L853 0L853 0L800 0L800 0L747 0L747 0L693 0L693 0L640 0L640 0L587 0L587 0L533 0L533 0L480 0L480 0L427 0L427 0L373 0L373 0L320 0L320 0L267 0L267 0L213 0L213 0L160 0L160 0L107 0L107 0L53 0L53 0L0 0Z" fill="#ffffff"></path><path d="M0 57L53 57L53 40L107 40L107 28L160 28L160 51L213 51L213 19L267 19L267 51L320 51L320 27L373 27L373 28L427 28L427 49L480 49L480 30L533 30L533 60L587 60L587 39L640 39L640 33L693 33L693 23L747 23L747 44L800 44L800 52L853 52L853 34L907 34L907 28L960 28L960 43L960 0L960 0L907 0L907 0L853 0L853 0L800 0L800 0L747 0L747 0L693 0L693 0L640 0L640 0L587 0L587 0L533 0L533 0L480 0L480 0L427 0L427 0L373 0L373 0L320 0L320 0L267 0L267 0L213 0L213 0L160 0L160 0L107 0L107 0L53 0L53 0L0 0Z" fill="#ffffff"></path></svg>