<svg id="visual" viewBox="0 0 960 540" width="960" height="540" xmlns="http://www.w3.org/2000/svg" xmlns:xlink="http://www.w3.org/1999/xlink" version="1.1"><rect x="0" y="0" width="960" height="540" fill="#FFFFFF"></rect><path d="M0 81L10.7 75.7C21.3 70.3 42.7 59.7 64 61.7C85.3 63.7 106.7 78.3 128 78C149.3 77.7 170.7 62.3 192 64.5C213.3 66.7 234.7 86.3 256 93.8C277.3 101.3 298.7 96.7 320 97.7C341.3 98.7 362.7 105.3 384 105.7C405.3 106 426.7 100 448 91.5C469.3 83 490.7 72 512 65.3C533.3 58.7 554.7 56.3 576 61C597.3 65.7 618.7 77.3 640 75.8C661.3 74.3 682.7 59.7 704 52.3C725.3 45 746.7 45 768 56C789.3 67 810.7 89 832 92.7C853.3 96.3 874.7 81.7 896 74.3C917.3 67 938.7 67 949.3 67L960 67L960 0L949.3 0C938.7 0 917.3 0 896 0C874.7 0 853.3 0 832 0C810.7 0 789.3 0 768 0C746.7 0 725.3 0 704 0C682.7 0 661.3 0 640 0C618.7 0 597.3 0 576 0C554.7 0 533.3 0 512 0C490.7 0 469.3 0 448 0C426.7 0 405.3 0 384 0C362.7 0 341.3 0 320 0C298.7 0 277.3 0 256 0C234.7 0 213.3 0 192 0C170.7 0 149.3 0 128 0C106.7 0 85.3 0 64 0C42.7 0 21.3 0 10.7 0L0 0Z" fill="#6905ff" stroke-linecap="round" stroke-linejoin="miter"></path></svg>