<svg id="visual" viewBox="0 0 960 540" width="960" height="540" xmlns="http://www.w3.org/2000/svg" xmlns:xlink="http://www.w3.org/1999/xlink" version="1.1"><rect x="0" y="0" width="960" height="540" fill="#ffffff"></rect><path d="M0 433L51 433L51 434L101 434L101 455L152 455L152 426L202 426L202 368L253 368L253 429L303 429L303 373L354 373L354 394L404 394L404 380L455 380L455 371L505 371L505 399L556 399L556 405L606 405L606 443L657 443L657 435L707 435L707 373L758 373L758 439L808 439L808 353L859 353L859 442L909 442L909 378L960 378L960 401L960 541L960 541L909 541L909 541L859 541L859 541L808 541L808 541L758 541L758 541L707 541L707 541L657 541L657 541L606 541L606 541L556 541L556 541L505 541L505 541L455 541L455 541L404 541L404 541L354 541L354 541L303 541L303 541L253 541L253 541L202 541L202 541L152 541L152 541L101 541L101 541L51 541L51 541L0 541Z" fill="#002359" stroke-linecap="square" stroke-linejoin="miter"></path></svg>